<?xml version="1.0" standalone="no"?>
<!DOCTYPE svg PUBLIC "-//W3C//DTD SVG 20010904//EN"
 "http://www.w3.org/TR/2001/REC-SVG-20010904/DTD/svg10.dtd">
<svg version="1.0" xmlns="http://www.w3.org/2000/svg"
 width="1024.000000pt" height="1024.000000pt" viewBox="0 0 1024.000000 1024.000000"
 preserveAspectRatio="xMidYMid meet">

<g transform="translate(0.000000,1024.000000) scale(0.100000,-0.100000)"
fill="#00BEFF" stroke="none">
<path d="M5020 8371 c-70 -23 -234 -89 -585 -236 -154 -65 -354 -148 -445
-185 -91 -37 -311 -128 -490 -203 -179 -74 -437 -181 -574 -238 -138 -56 -258
-111 -268 -121 -37 -37 -13 -96 55 -133 44 -24 47 -36 47 -235 l0 -158 -51
-33 c-30 -19 -64 -53 -80 -78 l-29 -45 0 -253 0 -252 31 -36 c52 -59 73 -65
221 -65 126 0 135 1 171 25 71 49 77 74 77 332 0 270 -5 286 -94 355 l-56 43
0 159 c0 146 1 158 18 152 9 -4 171 -69 360 -144 l342 -137 0 -453 c0 -296 4
-460 10 -473 23 -41 71 -63 490 -217 163 -60 782 -264 871 -287 38 -10 77 -14
98 -10 144 26 790 243 1146 385 168 67 240 105 254 136 8 17 11 161 11 469 l0
444 28 15 c41 21 355 151 667 276 279 111 325 137 325 179 0 33 -45 60 -240
139 -107 44 -400 165 -650 269 -1431 598 -1518 633 -1568 632 -20 0 -62 -8
-92 -18z m295 -311 c168 -70 941 -392 1145 -476 58 -23 193 -79 300 -124 107
-45 219 -91 248 -102 28 -11 52 -24 52 -27 -1 -3 -116 -52 -258 -108 -141 -56
-401 -163 -577 -238 -411 -175 -975 -408 -1043 -430 -82 -26 -63 -32 -547 155
-360 139 -475 185 -475 190 0 3 82 40 183 82 100 41 268 112 374 157 106 45
197 81 203 81 6 0 26 -11 44 -25 51 -39 120 -58 181 -52 143 15 250 145 231
283 -22 165 -207 270 -360 205 -60 -26 -123 -93 -137 -145 -6 -22 -14 -48 -18
-56 -11 -21 -931 -400 -969 -400 -9 1 -71 23 -137 51 -66 27 -227 93 -357 146
-131 53 -238 99 -238 102 0 4 251 111 558 239 306 127 667 277 802 333 135 56
319 133 410 171 106 44 174 67 190 64 14 -3 102 -37 195 -76z m-143 -607 c25
-30 29 -53 13 -83 -28 -54 -106 -53 -130 2 -22 54 7 98 65 98 23 0 43 -7 52
-17z m1128 -792 l0 -79 -77 -50 c-110 -70 -249 -138 -387 -189 -152 -56 -167
-65 -96 -59 30 3 109 8 174 12 92 5 148 14 240 40 66 19 126 34 133 34 10 0
13 -31 13 -138 l0 -139 -27 -12 c-126 -58 -1070 -404 -1135 -416 -26 -5 -90
13 -293 83 -404 139 -888 323 -913 346 -9 9 -12 49 -10 153 l3 141 135 -44
c157 -51 636 -172 825 -208 142 -27 365 -60 371 -54 2 2 -88 28 -199 57 -221
58 -683 208 -817 265 -47 20 -137 64 -200 99 l-115 62 -3 83 c-2 45 1 82 5 82
4 0 60 -22 123 -49 157 -66 701 -275 830 -318 97 -33 114 -36 230 -36 90 0
141 4 184 17 55 16 372 142 796 315 107 44 198 80 203 80 4 1 7 -35 7 -78z
m-3419 19 c18 -10 19 -23 19 -195 l0 -185 -50 0 c-63 0 -62 -1 -58 204 3 142
5 159 22 172 23 17 40 18 67 4z"/>
<path d="M3272 5735 c-73 -20 -107 -40 -162 -91 -91 -85 -132 -235 -97 -355
30 -103 122 -202 219 -237 32 -11 51 -24 54 -37 2 -11 3 -108 2 -215 l-3 -195
-72 -3 c-48 -2 -84 2 -108 13 -34 14 -37 17 -29 42 16 58 10 186 -11 228 -31
65 -113 139 -178 163 -161 60 -349 -17 -418 -171 -35 -77 -33 -183 4 -259 31
-62 84 -115 149 -149 57 -30 193 -38 258 -15 l45 15 40 -39 c53 -51 71 -57
209 -66 l117 -7 -3 -131 -3 -131 -186 -3 -187 -2 -53 56 c-30 31 -72 67 -95
80 -105 62 -236 70 -337 20 -64 -31 -141 -109 -167 -169 -61 -138 -18 -314 99
-406 72 -57 127 -76 221 -76 75 0 93 4 152 32 97 46 157 113 192 216 5 16 21
17 183 15 l178 -3 3 -557 2 -557 253 -127 c270 -136 1016 -522 1132 -585 39
-21 105 -52 149 -69 l78 -31 197 3 c239 4 223 -1 554 176 133 71 305 162 382
202 77 40 190 99 250 130 61 32 232 119 380 195 149 76 276 142 283 148 9 7
12 128 12 543 l0 534 108 0 108 0 17 -29 c31 -52 102 -114 165 -144 169 -79
371 -22 472 133 47 74 64 141 58 234 -11 176 -142 316 -323 346 -160 27 -338
-75 -394 -225 -12 -31 -21 -60 -21 -66 0 -6 -36 -9 -92 -7 l-93 3 0 410 0 410
117 3 116 3 22 -28 c137 -177 406 -190 560 -27 77 81 105 149 104 254 -1 190
-114 329 -299 367 -71 14 -83 14 -143 -1 -156 -38 -247 -125 -288 -274 l-17
-62 -203 0 c-175 0 -203 -2 -208 -16 -3 -9 -6 -119 -6 -245 l0 -229 -77 0
c-85 0 -142 -17 -453 -138 -225 -87 -200 -89 -200 12 0 79 3 90 38 158 l39 73
67 7 c130 13 250 97 308 216 30 60 33 75 33 157 0 77 -4 98 -27 147 -35 76
-107 151 -177 185 -51 25 -66 28 -161 28 -87 -1 -113 -5 -153 -23 -71 -32
-149 -111 -183 -185 -26 -54 -29 -73 -29 -157 0 -111 18 -161 84 -233 l40 -44
-47 -92 -47 -93 -5 -160 -5 -160 -40 -16 c-22 -8 -130 -52 -240 -97 -110 -46
-210 -86 -222 -90 -23 -6 -23 -6 -23 116 l0 122 53 51 c64 62 89 112 95 189 8
105 -49 201 -152 255 -179 93 -409 -56 -394 -253 7 -75 27 -115 88 -175 l48
-47 8 -142 c6 -117 4 -141 -7 -141 -8 0 -120 43 -249 95 l-235 94 -6 178 c-6
181 -9 197 -49 291 l-23 52 52 55 c66 70 93 130 99 221 23 364 -440 539 -659
249 -56 -74 -72 -124 -73 -230 0 -79 3 -97 28 -148 55 -114 183 -207 297 -215
l57 -4 26 -60 c23 -52 26 -73 26 -174 0 -63 -4 -114 -8 -114 -5 0 -64 23 -133
50 -68 28 -180 72 -249 98 -121 45 -129 46 -237 47 l-113 0 0 215 0 215 47 35
c64 47 119 130 139 210 30 117 -8 249 -97 339 -89 89 -231 129 -347 96z m164
-231 c70 -33 101 -143 57 -202 -37 -50 -71 -67 -129 -66 -149 1 -207 180 -85
261 41 28 107 30 157 7z m2754 -223 c45 -32 70 -79 70 -135 0 -190 -270 -207
-306 -19 -23 122 134 225 236 154z m-1921 -1 c109 -55 109 -218 1 -272 -95
-48 -209 12 -225 117 -13 82 68 174 153 175 18 0 50 -9 71 -20z m3317 -16 c77
-36 109 -146 62 -213 -38 -57 -73 -76 -133 -76 -153 0 -212 196 -85 283 40 27
106 29 156 6z m-4751 -416 c60 -47 66 -123 15 -178 -66 -71 -200 -13 -200 85
0 90 116 148 185 93z m2340 -133 c40 -40 30 -96 -22 -123 -35 -19 -63 -14 -94
17 -36 36 -37 60 -3 100 33 40 83 43 119 6z m1545 -380 l0 -84 -42 -11 c-159
-40 -449 -159 -589 -243 -53 -31 -99 -57 -103 -57 -4 0 -5 53 -4 117 l3 117
280 114 c288 117 326 129 408 131 l47 1 0 -85z m-2712 -74 l262 -104 0 -182 0
-182 -104 68 c-116 77 -291 167 -388 200 -38 13 -99 24 -155 27 l-93 5 0 139
0 140 108 -4 107 -3 263 -104z m3581 -101 c53 -26 81 -75 81 -137 0 -155 -208
-212 -291 -81 -26 42 -23 131 6 170 48 65 133 85 204 48z m-1821 -237 l-3
-157 -131 -101 c-72 -55 -191 -144 -263 -197 l-131 -97 0 200 0 201 68 67 c51
51 92 80 172 121 109 56 256 119 278 120 10 0 12 -35 10 -157z m-3077 98 c35
-35 39 -44 39 -90 0 -44 -5 -56 -33 -87 -28 -31 -42 -37 -84 -41 -69 -7 -115
20 -138 82 -22 55 -9 101 41 145 29 25 43 30 86 30 45 0 54 -4 89 -39z m1996
-47 c134 -65 162 -83 228 -147 l75 -72 0 -208 c0 -114 -2 -207 -5 -207 -3 0
-115 67 -248 149 l-242 150 -3 211 -2 211 22 -6 c13 -3 91 -40 175 -81z m2023
-498 l0 -494 -167 -89 c-93 -50 -287 -154 -433 -233 -146 -78 -389 -209 -540
-291 -151 -81 -287 -151 -302 -154 l-28 -7 0 121 0 121 39 24 c21 14 188 99
370 190 l331 166 2 367 3 367 115 73 c135 86 321 198 402 241 62 33 188 91
201 92 4 0 7 -222 7 -494z m-3038 338 c29 -14 175 -99 324 -187 l271 -162 7
-125 c3 -69 6 -221 6 -337 l0 -213 58 -29 c31 -16 127 -60 212 -99 263 -120
406 -189 423 -207 14 -13 17 -37 17 -131 l0 -114 -29 0 c-17 0 -108 40 -217
96 -219 112 -1060 547 -1151 596 l-63 33 0 459 0 459 45 -6 c25 -4 69 -18 97
-33z m2098 -634 l0 -220 -260 -130 c-143 -71 -262 -130 -265 -130 -3 0 -5 73
-5 163 l1 162 43 37 c23 20 94 72 157 116 63 43 159 111 214 150 55 39 103 72
108 72 4 0 7 -99 7 -220z m-1068 -7 c112 -75 222 -152 246 -170 l42 -34 0
-135 c0 -74 -3 -134 -6 -134 -5 0 -367 166 -454 208 l-35 17 -3 193 c-1 105 0
192 3 192 2 0 96 -61 207 -137z"/>
</g>
</svg>
